<svg width="100" height="100" viewBox="0 0 100 100" fill="none" xmlns="http://www.w3.org/2000/svg">
<g id="Company Logo">
<path id="Vector" d="M41.9125 44.0869C40.1069 44.0869 38.0533 44.9239 36.7986 46.5997L36.7994 46.5964L36.7986 46.5973L36.7994 44.35H32.4927V60.0334H36.7986V51.1094C36.7986 49.5033 38.0438 47.7958 40.3497 47.7958C42.1315 47.7958 43.9756 49.0354 43.9756 51.1094V60.0334H48.2822V50.3114C48.2822 46.7041 45.7014 44.0869 41.9125 44.0869ZM78.8909 44.3508L74.9976 55.0338L71.1042 44.3508H66.1846L72.6376 60.0292H77.3568L83.8097 44.3508H78.8909ZM19.6358 49.0754C20.3691 48.0906 21.5374 47.5124 22.9483 47.5124C24.5002 47.5124 25.6776 48.3987 26.2863 49.707L18.7622 52.8286C18.5568 51.2266 18.9667 49.9736 19.6358 49.0754ZM27.9095 55.2116C26.097 56.553 25.0614 56.873 23.4085 56.873C21.921 56.873 20.7564 56.4112 19.9354 55.6013L30.9455 51.0338C30.705 49.3318 30.059 47.8112 29.065 46.655C27.6184 44.975 25.4772 44.0861 22.8701 44.0861C18.1347 44.0861 14.564 47.5795 14.564 52.1936C14.564 56.9274 18.1432 60.3001 23.3448 60.3001C26.2592 60.3001 29.239 58.9189 30.6329 57.3051L27.9095 55.2116ZM14.1535 56.0791H4.36545V39.6597H0V60.0334H14.1535V56.0791ZM91.5428 47.7766C89.1378 47.7766 87.3913 49.5993 87.3913 52.192C87.3913 54.6676 89.2412 56.6074 91.6006 56.6074C94.0065 56.6074 95.7519 54.7346 95.7519 52.192C95.7519 49.7165 93.9028 47.7766 91.5428 47.7766ZM91.5428 60.2979C86.8329 60.2979 83.1424 56.789 83.1424 52.192C83.1424 47.6465 86.8584 44.0861 91.6006 44.0861C96.3105 44.0861 100 47.5948 100 52.192C100 56.7365 96.2848 60.2977 91.5428 60.2977V60.2979ZM58.3855 47.7766C55.9804 47.7766 54.235 49.5993 54.235 52.192C54.235 54.6676 56.084 56.6074 58.444 56.6074C60.8491 56.6074 62.5945 54.7346 62.5945 52.192C62.5945 49.7165 60.7455 47.7766 58.3855 47.7766ZM58.3855 60.2979C53.6756 60.2979 49.9861 56.789 49.9861 52.192C49.9861 47.6465 53.701 44.0861 58.444 44.0861C63.1531 44.0861 66.8434 47.5948 66.8434 52.192C66.8434 56.7365 63.1277 60.2977 58.3855 60.2977" fill="#E60012"/>
</g>
</svg>
