<svg width="100" height="20" viewBox="0 0 100 20" fill="none" xmlns="http://www.w3.org/2000/svg">
<g id="Group 8">
<path id="polygon3009" d="M15.9188 0.150391H0.0488281V4.01039L1.49883 9.75039L6.04883 10.0104L9.90883 6.15039L17.5488 4.51039L15.9188 0.150391Z" fill="#00C425"/>
<path id="polygon3005" d="M0.0488281 4.01025V19.8802H3.90883L10.3688 19.3402L9.91883 13.8702L0.0488281 4.01025Z" fill="#3AF23A"/>
<path id="polygon3007" d="M3.90625 19.8798H19.7762V16.0198L18.0862 10.8798L13.7662 10.0098L3.90625 19.8798Z" fill="#006446"/>
<path id="path3011" d="M95.6783 7.98053L92.1883 11.1506L95.6783 14.3407V16.1807H95.5683L90.3883 11.4806V15.9507H88.8883V2.43041H90.3883V10.8806L95.5383 6.19049H95.6783V7.98053ZM27.9883 15.9507H35.6483V14.4407H29.5483V2.87042H27.9883V15.9507ZM40.9483 6.20049C38.5983 6.20049 36.4583 8.11054 36.4583 11.1906C36.4583 14.1807 38.4183 16.1607 41.2383 16.1607C42.4983 16.1607 43.6583 15.8407 44.7083 15.0807V13.4707C43.6083 14.3907 42.3883 14.7807 41.2883 14.7807C39.5983 14.7807 38.0983 13.7307 37.9583 11.7706H45.0983C45.1183 11.5806 45.1583 11.1606 45.1583 11.0006C45.1583 7.85053 43.2583 6.20049 40.9483 6.20049ZM40.9583 7.57053C42.2883 7.57053 43.6383 8.43054 43.6883 10.4606H37.9483C38.0383 8.89055 39.2483 7.57053 40.9583 7.57053ZM66.1483 6.20049C64.8783 6.20049 63.9583 6.87051 63.4083 7.86053C62.9483 6.80051 62.0983 6.20049 60.7383 6.20049C59.5483 6.20049 58.6683 6.89051 58.1883 7.81053H58.1483L57.9683 6.3905H56.7783V15.9407H58.2983V9.91058C58.2983 8.74055 59.0283 7.65053 60.3483 7.65053C61.6383 7.65053 62.2083 8.41054 62.2083 9.79057V15.9507H63.7283V9.81057C63.7283 8.70055 64.4683 7.65053 65.7683 7.65053C67.0783 7.65053 67.6383 8.41054 67.6383 9.79057V15.9507H69.1583V9.58057C69.1683 7.58052 68.2383 6.20049 66.1483 6.20049ZM75.3183 6.20049C73.0383 6.20049 70.9083 8.13054 70.9083 11.1906C70.9083 14.2107 73.0283 16.1607 75.3183 16.1607C76.7483 16.1607 78.0983 15.4907 78.8183 14.1607H78.8383L79.0183 15.9507H80.2583V6.4005H79.0183L78.8383 8.19054H78.8183C78.0983 6.88051 76.7483 6.20049 75.3183 6.20049ZM75.5983 7.62053C77.3983 7.62053 78.7683 9.07056 78.7683 11.1806C78.7683 13.2807 77.4083 14.7407 75.5983 14.7407C73.8283 14.7407 72.4283 13.3107 72.4283 11.2006C72.4283 9.05056 73.8283 7.62053 75.5983 7.62053ZM86.7383 6.2905C85.9083 6.2905 84.6483 6.68051 83.9983 7.92053H83.9783L83.8183 6.4005H82.5983V15.9507H84.1183V10.4506C84.1183 8.24054 85.9083 7.55052 87.3783 7.85053V6.3405C87.1783 6.3105 86.9883 6.2905 86.7383 6.2905ZM54.8283 6.18049H54.7083L50.7183 10.1606L46.7383 6.18049H46.6183V8.11054L49.6883 11.1806L46.6183 14.2307V16.1807H46.7383L50.6983 12.1806L54.7083 16.1807H54.8283V14.2207L51.7283 11.1506L54.8283 8.03053V6.18049ZM95.6783 2.64041V2.43041H97.3383V2.64041H96.6383V4.30045H96.3883V2.63042C96.3783 2.64042 95.6783 2.64041 95.6783 2.64041ZM98.1783 2.43041L98.8983 4.01045L99.6183 2.43041H99.9583V4.30045H99.7183V2.73042L98.9983 4.30045H98.7883L98.0783 2.73042V4.30045H97.8383V2.42041H98.1783V2.43041Z" fill="#32323C"/>
<path id="polygon3003" d="M19.7819 16.0204V0.150391H15.9219L9.92188 6.15039L19.7819 16.0204Z" fill="#008A44"/>
</g>
</svg>
