<svg width="100" height="100" viewBox="0 0 100 100" fill="none" xmlns="http://www.w3.org/2000/svg">
<g id="Company Logo">
<path id="Vector" d="M13.7503 61.7705C12.246 62.0346 10.7152 62.1138 9.13174 62.3248L4.30186 48.1786V62.9319C2.79756 63.0902 1.4252 63.3013 0 63.5125V36.4868H4.01172L9.50117 51.8209V36.4868H13.7503V61.7705ZM22.0639 46.3839C23.7003 46.3839 26.2075 46.3047 27.7118 46.3047V50.5274C25.8379 50.5274 23.6475 50.5274 22.0639 50.6066V56.888C24.5448 56.7297 27.0257 56.5184 29.5328 56.4392V60.5034L17.841 61.4273V36.4868H29.5328V40.7096H22.0639V46.3839ZM45.2361 40.7097H40.8551V60.1343C39.4299 60.1343 38.0047 60.1343 36.6325 60.187V40.7097H32.2515V36.4868H45.2363L45.2361 40.7097ZM52.098 46.0937H57.878V50.3163H52.098V59.8968H47.9542V36.4868H59.7519V40.7096H52.098V46.0937ZM66.6138 56.2018C69.0155 56.2544 71.4435 56.4395 73.7925 56.5712V60.7413C70.0185 60.5036 66.2443 60.2664 62.3911 60.187V36.4868H66.6138V56.2018ZM77.3554 61.0316C78.7014 61.1109 80.1266 61.1901 81.4989 61.3482V36.4868H77.3554V61.0316ZM100 36.4868L94.6423 49.3399L100 63.5125C98.4163 63.3013 96.8328 63.011 95.2492 62.747L92.2143 54.9351L89.1267 62.1138C87.5956 61.8497 86.1177 61.7705 84.5872 61.5593L90.0239 49.1814L85.1148 36.4868H89.6541L92.4253 43.5863L95.3813 36.4868H100Z" fill="#D81F26"/>
</g>
</svg>
