<svg width="100" height="100" viewBox="0 0 100 100" fill="none" xmlns="http://www.w3.org/2000/svg">
<g id="Company Logo">
<path id="Vector" d="M97.6607 38.9602C98.4277 38.9198 99.1946 38.9198 99.9615 38.94C97.6607 43.7434 95.4407 48.5872 93.2004 53.4109H91.3235C90.2942 50.989 89.0832 48.6276 88.0135 46.2057C88.7603 46.1855 89.507 46.1855 90.2538 46.2057C90.8996 47.6992 91.6666 49.1322 92.2519 50.6257C94.0481 46.7305 95.9049 42.8554 97.6607 38.9602Z" fill="#FF0000"/>
<path id="Vector_2" d="M39.8785 41.019C41.3519 41.0392 42.8454 41.0392 44.3187 41.019C44.2985 42.3309 44.2985 43.6629 44.3187 44.9748C42.8454 44.9546 41.3519 44.9748 39.8584 44.9546C39.8987 43.6428 39.8584 42.3309 39.8785 41.019ZM17.5365 46.6701C20.5639 44.9546 24.9637 45.5399 27.0021 48.5067C28.2534 50.2626 28.6167 52.4827 28.5965 54.5816C25.1252 54.6018 21.6538 54.5816 18.1824 54.6018C18.3438 55.6715 18.808 56.8017 19.797 57.3668C21.2098 58.1943 23.4298 57.9521 24.1362 56.3173C25.5692 56.277 26.9819 56.277 28.4149 56.3173C27.9709 57.9521 26.7801 59.3447 25.2866 60.1116C23.672 60.9997 21.7345 61.1611 19.9383 60.8584C18.0411 60.5556 16.2852 59.486 15.2156 57.8916C14.045 56.1962 13.7422 54.0367 14.0046 52.0387C14.267 49.8388 15.5788 47.76 17.5365 46.6701ZM19.8979 49.1929C18.9089 49.6571 18.4246 50.7268 18.2026 51.7561H24.1362C24.0151 50.969 23.7326 50.1415 23.1271 49.5966C22.2794 48.7691 20.9272 48.7489 19.8979 49.1929ZM64.0773 45.9032C66.4589 45.4794 69.1028 45.9839 70.9394 47.6389C74.0677 50.4241 74.2089 55.8128 71.3027 58.7998C69.0019 61.2015 65.147 61.6455 62.2004 60.2933C59.9197 59.264 58.3657 56.943 58.1033 54.4807C58.0024 53.0478 58.063 51.5745 58.6482 50.2424C59.5363 47.9618 61.6958 46.3068 64.0773 45.9032ZM64.5819 49.1929C63.3306 49.6369 62.7453 50.9892 62.5636 52.2203C62.4224 53.7542 62.4426 55.4899 63.4315 56.7613C64.5012 58.1539 66.8625 58.1136 67.9322 56.7412C68.8202 55.6311 68.9615 54.1174 68.8606 52.745C68.8 51.5341 68.3762 50.2424 67.3671 49.4957C66.5598 48.9507 65.4901 48.87 64.5819 49.1929ZM79.9206 46.7307C81.3939 45.5803 83.4929 45.4592 85.1882 46.1454C86.3992 46.6701 87.3074 47.7398 87.7312 48.9709C88.2156 50.2424 88.0743 51.6148 88.0743 52.9469C88.0743 55.4899 88.0541 58.0328 88.0945 60.5556C86.6212 60.5758 85.1478 60.5556 83.6543 60.5758V51.857C83.6543 51.1103 83.3718 50.303 82.7461 49.8388C81.7975 49.1929 80.4251 49.314 79.6178 50.1213C78.972 50.7672 78.6894 51.6956 78.7096 52.5836V60.5758C77.2565 60.5556 75.7832 60.5758 74.33 60.5556C74.33 55.7522 74.3502 50.9488 74.33 46.1454C75.763 46.1656 77.1758 46.1252 78.6087 46.1656C78.5885 46.8316 78.5885 47.4976 78.5684 48.1636C79.0124 47.6792 79.3756 47.1343 79.9206 46.7307ZM0.0383301 46.1857H4.63994C5.56833 49.2737 6.55727 52.3616 7.42512 55.4697C8.49479 52.4221 9.30209 49.2737 10.3112 46.1857C11.7845 46.1656 13.278 46.1857 14.7514 46.1656C13.056 50.969 11.4011 55.7724 9.72592 60.5758C8.19205 60.5758 6.65818 60.5556 5.12431 60.596C3.36844 55.8128 1.81439 50.9488 0.0383301 46.1857ZM29.6057 46.1656H33.844C33.8238 46.9729 33.844 47.7802 33.8036 48.5875C34.1669 48.1838 34.4293 47.6792 34.8127 47.2958C35.7613 46.2463 37.3154 45.8225 38.6878 46.1857C38.6676 47.4572 38.6676 48.7287 38.6878 49.98C37.5979 49.859 36.387 49.8993 35.4586 50.5653C34.4696 51.2515 34.0256 52.523 34.0458 53.6936C34.0256 55.9944 34.0458 58.275 34.0458 60.5758C32.5725 60.5758 31.079 60.5556 29.6057 60.596C29.6258 55.7724 29.6258 50.969 29.6057 46.1656ZM39.8785 46.1857C41.372 46.1656 42.8454 46.1857 44.3389 46.1656C44.3187 50.969 44.3389 55.7724 44.3389 60.5758C42.8656 60.5556 41.372 60.5758 39.8785 60.5758V46.1857ZM45.5296 46.1656C49.5459 46.1857 53.5623 46.1656 57.5584 46.1857C57.518 47.2958 57.5584 48.3856 57.5382 49.4957C57.3969 49.7782 57.1547 49.98 56.9731 50.2222C54.9145 52.5029 52.8962 54.844 50.7973 57.1044C53.1586 57.1448 55.52 57.1044 57.8813 57.1246V60.596C53.7641 60.5758 49.6469 60.5758 45.5296 60.596V57.2457C47.6892 54.8238 49.8285 52.4221 52.0082 50.0204C52.0688 49.8993 52.3311 49.7782 52.1899 49.6168C49.9698 49.6773 47.7497 49.6168 45.5296 49.6571V46.1656Z" fill="black"/>
</g>
</svg>
