<svg width="32" height="32" viewBox="0 0 32 32" fill="none" xmlns="http://www.w3.org/2000/svg">
<g id="BugDroid">
<path id="Vector" opacity="0.2" d="M5.99146 16H25.9915V18.5C25.9915 21.1522 24.9379 23.6957 23.0625 25.5711C21.1872 27.4464 18.6436 28.5 15.9915 28.5C13.3393 28.5 10.7958 27.4464 8.92039 25.5711C7.04502 23.6957 5.99146 21.1522 5.99146 18.5V16Z" fill="white"/>
<path id="Vector_2" d="M25.9915 18.5C25.9915 21.1522 24.9379 23.6957 23.0625 25.5711C21.1872 27.4464 18.6436 28.5 15.9915 28.5C13.3393 28.5 10.7958 27.4464 8.92039 25.5711C7.04502 23.6957 5.99146 21.1522 5.99146 18.5V13.5C5.99146 10.8478 7.04502 8.3043 8.92039 6.42893C10.7958 4.55357 13.3393 3.5 15.9915 3.5C18.6436 3.5 21.1872 4.55357 23.0625 6.42893C24.9379 8.3043 25.9915 10.8478 25.9915 13.5V18.5Z" stroke="white" stroke-width="2" stroke-linecap="round" stroke-linejoin="round"/>
<path id="Vector_3" d="M25.9915 16H5.99146" stroke="white" stroke-width="2" stroke-linecap="round" stroke-linejoin="round"/>
<path id="Vector_4" d="M19.9915 11.5C19.9915 11.7761 19.7676 12 19.4915 12C19.2153 12 18.9915 11.7761 18.9915 11.5C18.9915 11.2239 19.2153 11 19.4915 11C19.7676 11 19.9915 11.2239 19.9915 11.5Z" fill="white" stroke="white" stroke-width="2"/>
<path id="Vector_5" d="M12.9915 11.5C12.9915 11.7761 12.7676 12 12.4915 12C12.2153 12 11.9915 11.7761 11.9915 11.5C11.9915 11.2239 12.2153 11 12.4915 11C12.7676 11 12.9915 11.2239 12.9915 11.5Z" fill="white" stroke="white" stroke-width="2"/>
<path id="Vector_6" d="M6.99146 3.5L9.53073 5.867" stroke="white" stroke-width="2" stroke-linecap="round" stroke-linejoin="round"/>
<path id="Vector_7" d="M24.9916 3.5L22.4522 5.86708" stroke="white" stroke-width="2" stroke-linecap="round" stroke-linejoin="round"/>
</g>
</svg>
