<svg width="32" height="32" viewBox="0 0 32 32" fill="none" xmlns="http://www.w3.org/2000/svg">
<g id="CreditCard">
<path id="Vector" opacity="0.2" d="M2.99951 12.1065H28.9995L29.0002 24C29.0002 24.2652 28.8949 24.5195 28.7074 24.7071C28.5198 24.8946 28.2655 25 28.0002 25H4.00024C3.73503 25 3.48067 24.8946 3.29314 24.7071C3.1056 24.5195 3.00024 24.2652 3.00024 24L2.99951 12.1065Z" fill="#FD8E1F"/>
<path id="Vector_2" d="M28 7H4C3.44772 7 3 7.44772 3 8V24C3 24.5523 3.44772 25 4 25H28C28.5523 25 29 24.5523 29 24V8C29 7.44772 28.5523 7 28 7Z" stroke="#FD8E1F" stroke-width="2" stroke-linecap="round" stroke-linejoin="round"/>
<path id="Vector_3" d="M20.9995 21H24.9995" stroke="#FD8E1F" stroke-width="2" stroke-linecap="round" stroke-linejoin="round"/>
<path id="Vector_4" d="M14.9995 21H16.9995" stroke="#FD8E1F" stroke-width="2" stroke-linecap="round" stroke-linejoin="round"/>
<path id="Vector_5" d="M2.99951 12.1065H28.9995" stroke="#FD8E1F" stroke-width="2" stroke-linecap="round" stroke-linejoin="round"/>
</g>
</svg>
