<svg width="32" height="32" viewBox="0 0 32 32" fill="none" xmlns="http://www.w3.org/2000/svg">
<g id="FirstAidKit">
<path id="Vector" opacity="0.2" d="M27.0007 9H5.00073C4.44845 9 4.00073 9.44772 4.00073 10V26C4.00073 26.5523 4.44845 27 5.00073 27H27.0007C27.553 27 28.0007 26.5523 28.0007 26V10C28.0007 9.44772 27.553 9 27.0007 9Z" fill="#23BD33"/>
<path id="Vector_2" d="M16 14.5V21.5" stroke="#23BD33" stroke-width="2" stroke-linecap="round" stroke-linejoin="round"/>
<path id="Vector_3" d="M19.5 18H12.5" stroke="#23BD33" stroke-width="2" stroke-linecap="round" stroke-linejoin="round"/>
<path id="Vector_4" d="M27.0007 9H5.00073C4.44845 9 4.00073 9.44772 4.00073 10V26C4.00073 26.5523 4.44845 27 5.00073 27H27.0007C27.553 27 28.0007 26.5523 28.0007 26V10C28.0007 9.44772 27.553 9 27.0007 9Z" stroke="#23BD33" stroke-width="2" stroke-linecap="round" stroke-linejoin="round"/>
<path id="Vector_5" d="M21 9V7C21 6.46957 20.7893 5.96086 20.4142 5.58579C20.0391 5.21071 19.5304 5 19 5H13C12.4696 5 11.9609 5.21071 11.5858 5.58579C11.2107 5.96086 11 6.46957 11 7V9" stroke="#23BD33" stroke-width="2" stroke-linecap="round" stroke-linejoin="round"/>
</g>
</svg>
