<svg width="32" height="32" viewBox="0 0 32 32" fill="none" xmlns="http://www.w3.org/2000/svg">
<g id="Handshake">
<path id="Vector" opacity="0.2" d="M25 19.1077L20.4004 23.7073C20.2783 23.8294 20.1266 23.9178 19.9602 23.9639C19.7938 24.01 19.6182 24.0122 19.4507 23.9703L12.2061 22.1592C12.0702 22.1252 11.943 22.0631 11.8326 21.9768L5 16.6339L9.0718 8.9737L15.4868 7.1035C15.716 7.0367 15.9614 7.05406 16.1789 7.15246L20.5 9.10766H17.9142C17.7829 9.10766 17.6529 9.13353 17.5315 9.18379C17.4102 9.23404 17.3 9.3077 17.2071 9.40056L12.3153 14.2924C12.214 14.3937 12.1356 14.5156 12.0855 14.6498C12.0354 14.784 12.0148 14.9274 12.0249 15.0704C12.0351 15.2133 12.0758 15.3523 12.1444 15.4781C12.213 15.6039 12.3078 15.7135 12.4224 15.7995L13.1 16.3077C13.7924 16.827 14.6345 17.1077 15.5 17.1077C16.3655 17.1077 17.2076 16.827 17.9 16.3077L19.5 15.1077L25 19.1077Z" fill="#23BD33"/>
<path id="Vector_2" d="M30.0897 15.2231L27 16.7679L23 9.10768L26.1212 7.5471C26.3557 7.42986 26.6268 7.40939 26.8763 7.4901C27.1257 7.57082 27.3335 7.74626 27.4548 7.97866L30.5289 13.8658C30.5904 13.9835 30.6278 14.1123 30.639 14.2446C30.6501 14.377 30.6348 14.5102 30.5939 14.6365C30.553 14.7629 30.4874 14.8798 30.4008 14.9805C30.3143 15.0812 30.2085 15.1637 30.0897 15.2231V15.2231Z" stroke="#23BD33" stroke-width="2" stroke-linecap="round" stroke-linejoin="round"/>
<path id="Vector_3" d="M4.99985 16.634L1.91015 15.0891C1.79137 15.0297 1.6856 14.9473 1.59903 14.8466C1.51246 14.7459 1.44682 14.6289 1.40593 14.5026C1.36505 14.3762 1.34974 14.243 1.3609 14.1107C1.37206 13.9783 1.40946 13.8495 1.47093 13.7318L4.54505 7.84469C4.6664 7.6123 4.87416 7.43685 5.1236 7.35613C5.37304 7.27541 5.6442 7.29588 5.87869 7.41313L8.99985 8.97371L4.99985 16.634Z" stroke="#23BD33" stroke-width="2" stroke-linecap="round" stroke-linejoin="round"/>
<path id="Vector_4" d="M27 16.7679L25 19.1077L20.4004 23.7073C20.2783 23.8294 20.1266 23.9178 19.9602 23.9639C19.7938 24.01 19.6182 24.0123 19.4507 23.9704L12.2061 22.1592C12.0702 22.1252 11.943 22.0631 11.8326 21.9768L5 16.634" stroke="#23BD33" stroke-width="2" stroke-linecap="round" stroke-linejoin="round"/>
<path id="Vector_5" d="M25.0002 19.1077L19.5002 15.1077L17.9002 16.3077C17.2079 16.827 16.3657 17.1077 15.5002 17.1077C14.6348 17.1077 13.7926 16.827 13.1002 16.3077L12.4226 15.7995C12.308 15.7136 12.2132 15.604 12.1446 15.4782C12.0761 15.3524 12.0353 15.2133 12.0252 15.0704C12.015 14.9275 12.0357 14.7841 12.0858 14.6499C12.1359 14.5156 12.2142 14.3937 12.3155 14.2924L17.2073 9.40062C17.3002 9.30776 17.4104 9.2341 17.5318 9.18385C17.6531 9.13359 17.7831 9.10773 17.9144 9.10773H23.0002" stroke="#23BD33" stroke-width="2" stroke-linecap="round" stroke-linejoin="round"/>
<path id="Vector_6" d="M9.07196 8.97369L15.487 7.1035C15.7161 7.0367 15.9616 7.05406 16.1791 7.15246L20.5002 9.10767" stroke="#23BD33" stroke-width="2" stroke-linecap="round" stroke-linejoin="round"/>
<path id="Vector_7" d="M14 26.6077L10.2326 25.6658C10.0797 25.6276 9.938 25.5538 9.81907 25.4504L7 23" stroke="#23BD33" stroke-width="2" stroke-linecap="round" stroke-linejoin="round"/>
</g>
</svg>
