<svg width="32" height="32" viewBox="0 0 32 32" fill="none" xmlns="http://www.w3.org/2000/svg">
<g id="MegaphoneSimple">
<path id="Vector" opacity="0.2" d="M5.27951 5.37337C5.13048 5.32991 4.97337 5.32173 4.82063 5.3495C4.66789 5.37728 4.52371 5.44023 4.39951 5.53337C4.27532 5.62652 4.17451 5.74731 4.10508 5.88616C4.03566 6.02502 3.99951 6.17813 3.99951 6.33337V23.6667C3.99951 23.822 4.03566 23.9751 4.10508 24.1139C4.17451 24.2528 4.27532 24.3736 4.39951 24.4667C4.52371 24.5599 4.66789 24.6228 4.82063 24.6506C4.97337 24.6783 5.13048 24.6702 5.27951 24.6267L17.0002 21.2082V8.79192L5.27951 5.37337Z" fill="#564FFD"/>
<path id="Vector_2" d="M3.99951 6.33337V23.6667C3.99951 23.822 4.03566 23.9751 4.10508 24.1139C4.17451 24.2528 4.27532 24.3736 4.39951 24.4667C4.52371 24.5599 4.66789 24.6228 4.82063 24.6506C4.97337 24.6783 5.13048 24.6702 5.27951 24.6267L27.2795 18.21C27.4872 18.1495 27.6697 18.0231 27.7995 17.85C27.9293 17.6769 27.9995 17.4664 27.9995 17.25V12.75C27.9995 12.5337 27.9293 12.3231 27.7995 12.15C27.6697 11.9769 27.4872 11.8506 27.2795 11.79L5.27951 5.37337C5.13048 5.32991 4.97337 5.32173 4.82063 5.3495C4.66789 5.37728 4.52371 5.44023 4.39951 5.53337C4.27532 5.62652 4.17451 5.74731 4.10508 5.88616C4.03566 6.02502 3.99951 6.17813 3.99951 6.33337V6.33337Z" stroke="#564FFD" stroke-width="2" stroke-linecap="round" stroke-linejoin="round"/>
<path id="Vector_3" d="M23 19.4581V24C23 24.2652 22.8946 24.5196 22.7071 24.7071C22.5196 24.8946 22.2652 25 22 25H18C17.7348 25 17.4804 24.8946 17.2929 24.7071C17.1054 24.5196 17 24.2652 17 24V8.79187" stroke="#564FFD" stroke-width="2" stroke-linecap="round" stroke-linejoin="round"/>
</g>
</svg>
