<svg width="32" height="32" viewBox="0 0 32 32" fill="none" xmlns="http://www.w3.org/2000/svg">
<g id="PenNib">
<path id="Vector" opacity="0.2" d="M15.0006 7.00037L7.54102 9.79773C7.37671 9.85933 7.2315 9.9631 7.11999 10.0986C7.00847 10.2341 6.93458 10.3965 6.90574 10.5696L4.00061 28.0004L21.4313 25.0952C21.6044 25.0664 21.7669 24.9925 21.9024 24.881C22.0379 24.7695 22.1416 24.6243 22.2032 24.46L25.0006 17.0004L15.0006 7.00037ZM14.4999 19.9999C14.0054 19.9999 13.5221 19.8533 13.111 19.5786C12.6998 19.3039 12.3794 18.9135 12.1902 18.4566C12.001 17.9998 11.9515 17.4972 12.0479 17.0122C12.1444 16.5273 12.3825 16.0818 12.7321 15.7322C13.0817 15.3825 13.5272 15.1444 14.0122 15.048C14.4971 14.9515 14.9998 15.001 15.4566 15.1902C15.9134 15.3795 16.3039 15.6999 16.5786 16.111C16.8533 16.5221 16.9999 17.0055 16.9999 17.4999C16.9999 17.8282 16.9352 18.1533 16.8096 18.4566C16.6839 18.76 16.4998 19.0356 16.2677 19.2677C16.0355 19.4999 15.7599 19.684 15.4566 19.8096C15.1533 19.9353 14.8282 19.9999 14.4999 19.9999Z" fill="#FF6636"/>
<path id="Vector_2" d="M14.5 20C15.8807 20 17 18.8807 17 17.5C17 16.1193 15.8807 15 14.5 15C13.1193 15 12 16.1193 12 17.5C12 18.8807 13.1193 20 14.5 20Z" stroke="#FF6636" stroke-width="2" stroke-linecap="round" stroke-linejoin="round"/>
<path id="Vector_3" d="M4.00049 28.0005L12.732 19.2678" stroke="#FF6636" stroke-width="2" stroke-linecap="round" stroke-linejoin="round"/>
<path id="Vector_4" d="M4.00049 28.0004L21.4312 25.0952C21.6043 25.0664 21.7668 24.9925 21.9023 24.881C22.0377 24.7695 22.1415 24.6243 22.2031 24.46L25.0005 17.0004L15.0005 7.00037L7.54088 9.79773C7.37657 9.85934 7.23137 9.96311 7.11986 10.0986C7.00835 10.2341 6.93446 10.3966 6.90561 10.5697L4.00049 28.0004Z" stroke="#FF6636" stroke-width="2" stroke-linecap="round" stroke-linejoin="round"/>
<path id="Vector_5" d="M25.0005 17.0005L28.2934 13.7076C28.3862 13.6147 28.4599 13.5045 28.5102 13.3831C28.5604 13.2618 28.5863 13.1318 28.5863 13.0005C28.5863 12.8691 28.5604 12.7391 28.5102 12.6178C28.4599 12.4964 28.3862 12.3862 28.2934 12.2934L19.7076 3.70757C19.5201 3.52003 19.2657 3.41467 19.0005 3.41467C18.7353 3.41467 18.4809 3.52003 18.2934 3.70757L15.0005 7.00046" stroke="#FF6636" stroke-width="2" stroke-linecap="round" stroke-linejoin="round"/>
</g>
</svg>
