<svg width="19" height="18" viewBox="0 0 19 18" fill="none" xmlns="http://www.w3.org/2000/svg">
<g id="Linkedin">
<path id="Vector" d="M18.992 17.9992V17.9984H18.9965V11.3969C18.9965 8.16744 18.3012 5.67969 14.5257 5.67969C12.7107 5.67969 11.4927 6.67569 10.9955 7.61994H10.943V5.98119H7.36322V17.9984H11.0907V12.0479C11.0907 10.4812 11.3877 8.96619 13.328 8.96619C15.2397 8.96619 15.2682 10.7542 15.2682 12.1484V17.9992H18.992Z" fill="white"/>
<path id="Vector_2" d="M1.29349 5.98438H5.02549V18.0016H1.29349V5.98438Z" fill="white"/>
<path id="Vector_3" d="M3.15799 0C1.96474 0 0.99649 0.96825 0.99649 2.1615C0.99649 3.35475 1.96474 4.34325 3.15799 4.34325C4.35124 4.34325 5.31949 3.35475 5.31949 2.1615C5.31874 0.96825 4.35049 0 3.15799 0V0Z" fill="white"/>
</g>
</svg>
