<svg width="19" height="18" viewBox="0 0 19 18" fill="none" xmlns="http://www.w3.org/2000/svg">
<g id="Twitter" clip-path="url(#clip0_4629_13117)">
<g id="Group">
<path id="Vector" d="M18.9965 3.73137C18.3271 4.025 17.6139 4.21962 16.8702 4.31412C17.6352 3.85737 18.2191 3.13962 18.4936 2.2745C17.7804 2.69975 16.9929 3.00013 16.1536 3.16775C15.4764 2.44663 14.5111 2 13.4581 2C11.4151 2 9.77036 3.65825 9.77036 5.69113C9.77036 5.98363 9.79512 6.26487 9.85587 6.53262C6.78799 6.383 4.07337 4.91263 2.24974 2.67275C1.93137 3.22513 1.74462 3.85738 1.74462 4.538C1.74462 5.816 2.40274 6.94887 3.38374 7.60475C2.79087 7.5935 2.20924 7.42138 1.71649 7.15025C1.71649 7.1615 1.71649 7.17613 1.71649 7.19075C1.71649 8.984 2.99562 10.4735 4.67299 10.8166C4.37262 10.8988 4.04524 10.9381 3.70549 10.9381C3.46924 10.9381 3.23074 10.9246 3.00687 10.8751C3.48499 12.3365 4.84174 13.4109 6.45499 13.4457C5.19949 14.4279 3.60537 15.0196 1.87962 15.0196C1.57699 15.0196 1.28674 15.0061 0.99649 14.969C2.63112 16.0231 4.56837 16.625 6.65749 16.625C13.448 16.625 17.1605 11 17.1605 6.12425C17.1605 5.96112 17.1549 5.80363 17.147 5.64725C17.8794 5.1275 18.4947 4.47837 18.9965 3.73137Z" fill="white"/>
</g>
</g>
<defs>
<clipPath id="clip0_4629_13117">
<rect width="18" height="18" fill="white" transform="translate(0.99649)"/>
</clipPath>
</defs>
</svg>
