<svg width="19" height="18" viewBox="0 0 19 18" fill="none" xmlns="http://www.w3.org/2000/svg">
<g id="Frame 74">
<path id="Youtube" fill-rule="evenodd" clip-rule="evenodd" d="M17.0392 3.38548C17.8101 3.59312 18.4181 4.20094 18.6256 4.97204C19.0112 6.38048 18.9964 9.31629 18.9964 9.31629C18.9964 9.31629 18.9964 12.2371 18.6257 13.6457C18.4181 14.4167 17.8103 15.0246 17.0392 15.2321C15.6306 15.6029 9.99642 15.6029 9.99642 15.6029C9.99642 15.6029 4.37694 15.6029 2.95367 15.2174C2.18257 15.0098 1.57475 14.4018 1.36711 13.6309C0.99646 12.2371 0.99646 9.30146 0.99646 9.30146C0.99646 9.30146 0.99646 6.38048 1.36711 4.97204C1.57461 4.20108 2.1974 3.57829 2.95353 3.37079C4.36211 3 9.99629 3 9.99629 3C9.99629 3 15.6306 3 17.0392 3.38548ZM12.8878 9.30154L8.20251 12.0001V6.60303L12.8878 9.30154Z" fill="white"/>
</g>
</svg>
